<?xml version="1.0" encoding="utf-8"?>
<!-- Svg Vector Icons : http://www.onlinewebfonts.com/icon -->
<!DOCTYPE svg PUBLIC "-//W3C//DTD SVG 1.1//EN" "http://www.w3.org/Graphics/SVG/1.1/DTD/svg11.dtd">
<svg version="1.1" xmlns="http://www.w3.org/2000/svg" xmlns:xlink="http://www.w3.org/1999/xlink" x="0px" y="0px" viewBox="0 0 1000 1000" enable-background="new 0 0 1000 1000" xml:space="preserve">
<metadata> Svg Vector Icons : http://www.onlinewebfonts.com/icon </metadata>
<g><path d="M990,791.1c-74.4,0-148.7,0-225.2,0c0-23.2,0-44.1,0-64.9c0-23.6,0-47.2,0-70.7c0-80.5-0.9-84-43.1-161.4c8.1-1.9,15.7-5.1,23.3-5.2c39.5-0.8,79.1-2.9,118.4-0.6c64,3.8,103.7,37.5,122.8,99.1c0.9,2.9,2.5,5.7,3.8,8.5C990,660.9,990,726,990,791.1z"/><path d="M10,599.7c10.7-22,18.6-46,32.7-65.6c20.6-28.5,51.3-44.2,86.8-45.4c45-1.4,90-0.4,139.1-0.4c-8.7,14-15.7,24.2-21.6,35c-18.1,33.1-26.5,68.5-26.2,106.3c0.4,52.8,0.1,105.6,0.1,161.4c-71.1,0-141,0-210.8,0C10,727.3,10,663.5,10,599.7z"/><path d="M726.8,847.6c-156.5,0-311.3,0-467.1,0c-0.7-3.3-1.9-6.3-1.9-9.2c0-72.7-1.4-145.3,0.7-217.9c2.5-91.1,63.9-158.8,154.5-167.1c52.4-4.8,106-4.8,158.4-0.2c91.8,8,153.9,76.5,156.6,169.7c2.1,72,0.4,144,0.3,216C728.4,841.2,727.5,843.7,726.8,847.6z"/><path d="M635.9,291.7c0,76.7-61.9,139-138.4,139.2c-77.2,0.3-139.8-62.7-139.4-140.1c0.3-76.3,63.2-138.7,139.4-138.4C573.9,152.8,635.9,215.1,635.9,291.7z"/><path d="M813.1,470.6c-58.4,0.1-106.1-47.2-106.2-105.5c-0.2-58.2,47.4-106.1,105.5-106.3c59.4-0.2,107.8,47.9,107.2,106.6C919,423.9,871.8,470.5,813.1,470.6z"/><path d="M192.3,470.6C134,470.1,86.3,421.8,87,364c0.7-58.3,48.6-105.5,106.8-105.3c58.4,0.2,106,47.5,106.4,105.7C300.5,423,251.6,471.1,192.3,470.6z"/></g>
</svg>